<?xml version="1.0" encoding="UTF-8"?>
<svg id="Layer_1" data-name="Layer 1" xmlns="http://www.w3.org/2000/svg" viewBox="0 0 1024 768">
  <defs>
    <style>
      .cls-1 {
        letter-spacing: -.02em;
      }

      .cls-2 {
        letter-spacing: 0em;
      }

      .cls-3 {
        letter-spacing: -.05em;
      }

      .cls-4 {
        stroke-width: 0px;
      }

      .cls-4, .cls-5 {
        fill: #fff;
      }

      .cls-6 {
        letter-spacing: -.03em;
      }

      .cls-5 {
        font-size: 203px;
      }
    </style>
  </defs>
  <g>
    <path class="cls-4" d="m179.45,360.7c26.17,0,52.35,0,78.52,0q3.41,0,3.41,3.3c0,13.58-.04,27.17.04,40.75.01,2.19-.65,2.86-2.85,2.86-52.81-.05-105.62-.04-158.42.02-2.16,0-2.89-.58-2.87-2.83.1-13.74.1-27.47,0-41.21-.02-2.31.63-2.96,2.96-2.96,26.4.08,52.81.05,79.21.05h0Z"/>
    <path class="cls-4" d="m214.35,266.91c14.73,0,29.47.04,44.2-.04,2.15-.01,2.9.54,2.88,2.8-.09,13.82-.09,27.63,0,41.45.02,2.25-.74,2.83-2.89,2.83-29.39-.04-58.78-.03-88.17.05-2.22,0-2.87-.69-2.86-2.87.08-13.74.04-27.48.05-41.22,0-3.01.04-3.01,3.04-3.01,14.58,0,29.16,0,43.74,0v.02Z"/>
    <path class="cls-4" d="m97.34,302.05c0-10.84.05-21.67-.04-32.51-.02-2.12.67-2.7,2.75-2.69,13.89.09,27.78.1,41.67.01,2.19-.01,2.68.77,2.67,2.78-.05,21.6-.06,43.19.02,64.79,0,2.34-.72,2.96-3.01,2.95-13.58-.09-27.17-.04-40.75-.04-3.3,0-3.31-.01-3.31-3.24,0-10.68,0-21.37,0-32.05h.01Z"/>
    <path class="cls-4" d="m97.33,465.9c0-10.68.07-21.36-.05-32.04-.03-2.36.75-2.96,3.01-2.95,13.66.09,27.31.05,40.97.05,3.05,0,3.08,0,3.08,2.98.01,21.59-.02,43.18.06,64.77,0,2.14-.7,2.73-2.76,2.72-13.81-.06-27.62-.07-41.42.03-2.39.02-2.95-.84-2.93-3.07.1-10.83.04-21.67.04-32.5Z"/>
  </g>
  <text class="cls-5" transform="translate(277.97 415.42)"><tspan class="cls-3" x="0" y="0">F</tspan><tspan class="cls-1" x="111.25" y="0">A</tspan><tspan class="cls-6" x="258.22" y="0">Z</tspan><tspan class="cls-2" x="377.78" y="0">A</tspan><tspan x="526.78" y="0">B</tspan></text>
</svg>