<?xml version="1.0" encoding="UTF-8"?>
<svg id="Layer_1" data-name="Layer 1" xmlns="http://www.w3.org/2000/svg" viewBox="0 0 1024 768">
  <defs>
    <style>
      .cls-1 {
        fill: #fff;
        stroke-width: 0px;
      }
    </style>
  </defs>
  <path class="cls-1" d="m502.15,322.95c66.36,0,132.72,0,199.09,0q8.64,0,8.66,8.36c0,34.44-.1,68.88.11,103.31.03,5.54-1.64,7.26-7.24,7.26-133.88-.12-267.77-.1-401.65.05-5.48,0-7.32-1.47-7.28-7.17.24-34.82.25-69.65,0-104.47-.04-5.85,1.59-7.51,7.49-7.5,66.94.2,133.88.13,200.83.13v.03Z"/>
  <path class="cls-1" d="m590.66,85.16c37.35,0,74.7.1,112.06-.11,5.46-.03,7.34,1.37,7.31,7.1-.24,35.03-.23,70.06,0,105.09.04,5.7-1.86,7.18-7.32,7.17-74.51-.1-149.02-.07-223.53.13-5.62.02-7.28-1.76-7.25-7.28.21-34.84.09-69.67.14-104.51,0-7.63.11-7.64,7.7-7.64,36.97,0,73.93,0,110.9,0v.05Z"/>
  <path class="cls-1" d="m293.99,174.24c0-27.47.12-54.95-.11-82.42-.04-5.38,1.71-6.85,6.96-6.82,35.21.22,70.42.26,105.64.03,5.56-.04,6.79,1.96,6.78,7.04-.13,54.75-.16,109.51.04,164.26.02,5.94-1.83,7.51-7.62,7.48-34.44-.24-68.88-.09-103.31-.09-8.37,0-8.4-.04-8.4-8.22-.01-27.09,0-54.17,0-81.26h.04Z"/>
  <path class="cls-1" d="m293.96,589.67c0-27.08.17-54.16-.13-81.23-.07-5.99,1.91-7.51,7.63-7.47,34.62.23,69.24.12,103.86.13,7.74,0,7.81.02,7.81,7.56.03,54.74-.04,109.47.15,164.21.02,5.44-1.78,6.93-6.99,6.91-35.01-.16-70.02-.19-105.02.08-6.06.05-7.48-2.13-7.43-7.79.24-27.46.11-54.93.11-82.39Z"/>
</svg>