<?xml version="1.0" encoding="UTF-8"?>
<svg id="Layer_1" data-name="Layer 1" xmlns="http://www.w3.org/2000/svg" viewBox="0 0 1024 768">
  <defs>
    <style>
      .cls-1 {
        fill: #fff;
        stroke-width: 0px;
      }
    </style>
  </defs>
  <path class="cls-1" d="m502.05,350.52c35.6,0,71.21,0,106.81,0q4.64,0,4.64,4.48c0,18.48-.06,36.95.06,55.43.02,2.97-.88,3.9-3.88,3.89-71.83-.06-143.66-.05-215.5.02-2.94,0-3.93-.79-3.9-3.84.13-18.68.14-37.37,0-56.05-.02-3.14.86-4.03,4.02-4.02,35.92.11,71.83.07,107.75.07v.02Z"/>
  <path class="cls-1" d="m549.53,222.93c20.04,0,40.08.05,60.12-.06,2.93-.02,3.94.74,3.92,3.81-.13,18.79-.13,37.59,0,56.38.02,3.06-1,3.85-3.93,3.85-39.98-.06-79.95-.04-119.93.07-3.02,0-3.91-.94-3.89-3.91.11-18.69.05-37.38.07-56.07,0-4.1.06-4.1,4.13-4.1,19.83,0,39.67,0,59.5,0v.03Z"/>
  <path class="cls-1" d="m390.36,270.73c0-14.74.07-29.48-.06-44.22-.02-2.89.92-3.68,3.74-3.66,18.89.12,37.78.14,56.68.02,2.98-.02,3.64,1.05,3.64,3.78-.07,29.38-.09,58.75.02,88.13.01,3.18-.98,4.03-4.09,4.01-18.48-.13-36.95-.05-55.43-.05-4.49,0-4.51-.02-4.51-4.41,0-14.53,0-29.06,0-43.6h.02Z"/>
  <path class="cls-1" d="m390.35,493.62c0-14.53.09-29.06-.07-43.58-.04-3.21,1.02-4.03,4.1-4.01,18.57.12,37.15.06,55.73.07,4.15,0,4.19.01,4.19,4.06.02,29.37-.02,58.74.08,88.1.01,2.92-.96,3.72-3.75,3.7-18.78-.08-37.57-.1-56.35.04-3.25.02-4.01-1.14-3.98-4.18.13-14.73.06-29.47.06-44.21Z"/>
</svg>